Coordinates
version=1
nRows=10
nColumns=46
inDegrees=yes

Units are S.I. units (second, meters, Newtons, ...)
Angles are in degrees.

endheader
time	pelvis_tilt	pelvis_list	pelvis_rotation	pelvis_tx	pelvis_ty	pelvis_tz	bb_angle	bb_tx	bb_ty	bb_tz	hip_flexion_r	hip_adduction_r	hip_rotation_r	knee_angle_r	knee_angle_r_beta	ankle_angle_r	subtalar_angle_r	mtp_angle_r	crank_angle_r	hip_flexion_l	hip_adduction_l	hip_rotation_l	knee_angle_l	knee_angle_l_beta	ankle_angle_l	subtalar_angle_l	mtp_angle_l	crank_angle_l	lumbar_extension	lumbar_bending	lumbar_rotation	arm_flex_r	arm_add_r	arm_rot_r	elbow_flex_r	pro_sup_r	wrist_flex_r	wrist_dev_r	arm_flex_l	arm_add_l	arm_rot_l	elbow_flex_l	pro_sup_l	wrist_flex_l	wrist_dev_l
      0.00000000	     -6.72739276	      1.30923575	      3.11897774	      0.17886398	      1.04670461	     -0.24164214	      0.00000000	      0.50000000	      0.00000000	      0.25000000	     37.96050970	     -6.88105132	      1.46857561	     77.20696864	      1.34751581	     14.38724886	     -3.58155723	      0.00000000	      0.00000000	     73.69948854	     -5.12308281	     -0.91483570	     84.68615845	      1.47805230	     -3.10367345	     -5.25962196	      0.00000000	      0.00000000	    -57.06155746	     -0.26316148	     -4.58830762	     88.71512069	     -5.09760551	     35.49386634	     24.43201622	     31.70150950	      0.00000000	      0.00000000	     81.63278650	    -11.40401322	     25.75783015	     41.60191509	     34.45841021	      0.00000000	      0.00000000
      0.00500000	     -6.59237846	      1.29803468	      3.10750156	      0.17892887	      1.04698607	     -0.24153055	      0.00000000	      0.50000000	      0.00000000	      0.25000000	     37.71269095	     -6.84443273	      1.43879979	     76.95008216	      1.34303229	     14.32354197	     -3.59196001	      0.00000000	      0.00000000	     73.67461410	     -5.18105781	     -0.90339644	     84.91941507	      1.48212339	     -3.04253884	     -5.28421745	      0.00000000	      0.00000000	    -57.28749692	     -0.27216754	     -4.60428631	     88.70037295	     -5.27204576	     35.37330692	     24.86633029	     31.80874773	      0.00000000	      0.00000000	     81.58110184	    -11.67426953	     26.06577205	     42.01471238	     34.88259071	      0.00000000	      0.00000000
      0.01000000	     -6.75880853	      1.31647801	      3.13110172	      0.17882237	      1.04671249	     -0.24147819	      0.00000000	      0.50000000	      0.00000000	      0.25000000	     37.84294893	     -6.85933823	      1.44694744	     76.74232240	      1.33940620	     14.16060244	     -3.68560261	      0.00000000	      0.00000000	     73.99477807	     -5.14330174	     -0.87189779	     85.10439793	      1.48535195	     -3.08050156	     -5.23484544	      0.00000000	      0.00000000	    -57.06610937	     -0.32737737	     -4.52346369	     88.69091713	     -5.39220012	     35.83933191	     24.63399266	     31.64785919	      0.00000000	      0.00000000	     81.82973158	    -11.59927108	     26.84792592	     41.35151694	     35.00862421	      0.00000000	      0.00000000
      0.01500000	     -6.73074270	      1.27096861	      3.17314250	      0.17896769	      1.04664962	     -0.24168821	      0.00000000	      0.50000000	      0.00000000	      0.25000000	     37.71505566	     -6.89112341	      1.35496230	     76.54001230	      1.33587522	     14.17258141	     -3.46399036	      0.00000000	      0.00000000	     74.12616797	     -5.11299073	     -0.80593679	     85.38876886	      1.49031516	     -3.03071933	     -5.33626359	      0.00000000	      0.00000000	    -57.14060060	     -0.25147941	     -4.54423299	     88.66744924	     -5.60894062	     36.04315706	     25.08089815	     31.88936622	      0.00000000	      0.00000000	     81.72574172	    -11.70793963	     26.75877562	     41.78150212	     35.29816100	      0.00000000	      0.00000000
      0.02000000	     -6.88403234	      1.26384133	      3.11678087	      0.17878585	      1.04659979	     -0.24162284	      0.00000000	      0.50000000	      0.00000000	      0.25000000	     37.87221640	     -6.85119962	      1.40803491	     76.37208060	      1.33294426	     14.00336179	     -3.55705255	      0.00000000	      0.00000000	     74.42485192	     -5.17289093	     -0.76817661	     85.59597175	      1.49393153	     -3.03425828	     -5.29044120	      0.00000000	      0.00000000	    -56.91719052	     -0.34839343	     -4.47647877	     88.76158036	     -6.50263033	     39.68647109	     24.91739736	     32.57550156	      0.00000000	      0.00000000	     81.73356806	    -11.77974992	     27.17205837	     41.49162094	     36.27573700	      0.00000000	      0.00000000
      0.02500000	     -6.95274678	      1.28362913	      3.13076702	      0.17878798	      1.04649628	     -0.24174415	      0.00000000	      0.50000000	      0.00000000	      0.25000000	     37.87591407	     -6.91589555	      1.37973196	     76.15275698	      1.32911634	     13.91971421	     -3.46726564	      0.00000000	      0.00000000	     74.62255883	     -5.13273134	     -0.76430955	     85.80307031	      1.49754609	     -3.02454806	     -5.35873829	      0.00000000	      0.00000000	    -56.87227281	     -0.34559942	     -4.49672867	     88.71112159	     -6.40524189	     38.85680830	     24.93634338	     33.20128017	      0.00000000	      0.00000000	     81.76710847	    -11.67096090	     26.91158765	     41.33852352	     36.84161728	      0.00000000	      0.00000000
      0.03000000	     -6.93398536	      1.31373228	      3.16783064	      0.17873740	      1.04652653	     -0.24165039	      0.00000000	      0.50000000	      0.00000000	      0.25000000	     37.80078775	     -6.95484768	      1.35010767	     75.97662165	      1.32604220	     13.77672836	     -3.51923565	      0.00000000	      0.00000000	     74.73625575	     -5.11683876	     -0.77702117	     86.00538191	      1.50107709	     -3.06500560	     -5.34554678	      0.00000000	      0.00000000	    -56.89955705	     -0.32843267	     -4.53610662	     88.73244900	     -6.30492226	     38.81025349	     24.72337611	     33.61644044	      0.00000000	      0.00000000	     81.77274425	    -11.73570208	     26.93039709	     41.27891374	     37.29621948	      0.00000000	      0.00000000
      0.03500000	     -6.96292250	      1.35053994	      3.23165940	      0.17875808	      1.04660640	     -0.24165896	      0.00000000	      0.50000000	      0.00000000	      0.25000000	     37.73487151	     -7.02720825	      1.29358683	     75.71505408	      1.32147699	     13.65913637	     -3.48044413	      0.00000000	      0.00000000	     74.85972859	     -5.04477582	     -0.77240103	     86.17386275	      1.50401763	     -3.04980833	     -5.34100536	      0.00000000	      0.00000000	    -56.90694341	     -0.34930705	     -4.65099393	     88.70257375	     -6.25678820	     38.29781438	     24.75416773	     34.01548603	      0.00000000	      0.00000000	     81.74848602	    -11.70648962	     26.78965138	     41.28449211	     37.68726431	      0.00000000	      0.00000000
      0.04000000	     -6.98970406	      1.39546508	      3.24667500	      0.17872109	      1.04659440	     -0.24166380	      0.00000000	      0.50000000	      0.00000000	      0.25000000	     37.71126017	     -7.09366931	      1.27634301	     75.52607438	      1.31817867	     13.59508965	     -3.46206574	      0.00000000	      0.00000000	     75.00101093	     -5.02039100	     -0.80010158	     86.36022632	      1.50727029	     -3.06656957	     -5.39223926	      0.00000000	      0.00000000	    -56.89833077	     -0.35987728	     -4.70957210	     88.69653467	     -6.08964479	     37.61537092	     24.61760788	     34.72652927	      0.00000000	      0.00000000	     81.79037065	    -11.69835330	     26.55432987	     41.15330461	     38.24311688	      0.00000000	      0.00000000
      0.04500000	     -7.01261672	      1.39533293	      3.27044123	      0.17870613	      1.04659239	     -0.24164349	      0.00000000	      0.50000000	      0.00000000	      0.25000000	     37.66462075	     -7.10943884	      1.23942892	     75.29770969	      1.31419295	     13.44696435	     -3.47337734	      0.00000000	      0.00000000	     75.14174835	     -5.01349030	     -0.77921298	     86.55636834	      1.51069362	     -3.01869528	     -5.35752310	      0.00000000	      0.00000000	    -56.89028527	     -0.35408171	     -4.73012182	     88.69028157	     -6.09472593	     37.54011279	     24.54785155	     35.16816885	      0.00000000	      0.00000000	     81.77942753	    -11.76347767	     26.61106833	     41.19577221	     38.67203014	      0.00000000	      0.00000000
